<svg xmlns="http://www.w3.org/2000/svg" height="40" viewBox="0 -960 960 960" width="40"><path d="M80-200v-66.666h400V-200H80Zm0-206.667v-66.666h200v66.666H80Zm0-206.667V-680h200v66.666H80ZM833.334-200 675.333-358Q650-339 620.5-329.5T560-320q-83 0-141.5-58.5T360-520q0-83 58.5-141.5T560-720q83 0 141.5 58.5T760-520q0 31-9.5 60.5T722-404.667l158 158.001L833.334-200ZM559.843-386.666q55.49 0 94.491-38.844 39-38.843 39-94.333 0-55.49-38.844-94.491-38.843-39-94.333-39-55.49 0-94.491 38.844-39 38.843-39 94.333 0 55.49 38.844 94.491 38.843 39 94.333 39Z"/></svg>